<?xml version="1.0" encoding="utf-8"?>
<!-- Generator: Adobe Illustrator 23.0.1, SVG Export Plug-In . SVG Version: 6.00 Build 0)  -->
<svg version="1.1" id="Calque_1" xmlns="http://www.w3.org/2000/svg" xmlns:xlink="http://www.w3.org/1999/xlink" x="0px" y="0px"
	 viewBox="0 0 676 361" style="enable-background:new 0 0 676 361;" xml:space="preserve">
<style type="text/css">
	.st0{clip-path:url(#SVGID_2_);}
	.st1{clip-path:url(#SVGID_4_);fill:url(#SVGID_5_);}
	.st2{clip-path:url(#SVGID_7_);fill:url(#SVGID_8_);}
	.st3{clip-path:url(#SVGID_10_);fill:url(#SVGID_11_);}
	.st4{clip-path:url(#SVGID_13_);fill:url(#SVGID_14_);}
	.st5{clip-path:url(#SVGID_16_);fill:url(#SVGID_17_);}
	.st6{clip-path:url(#SVGID_19_);fill:#1D2A4B;}
	.st7{clip-path:url(#SVGID_21_);fill:url(#SVGID_22_);}
	.st8{clip-path:url(#SVGID_24_);fill:#1D2A4B;}
	.st9{clip-path:url(#SVGID_26_);fill:url(#SVGID_27_);}
	.st10{clip-path:url(#SVGID_29_);fill:url(#SVGID_30_);}
	.st11{clip-path:url(#SVGID_32_);fill:#1D2A4B;}
	.st12{filter:url(#Adobe_OpacityMaskFilter);}
	.st13{clip-path:url(#SVGID_34_);fill:url(#SVGID_36_);}
	.st14{clip-path:url(#SVGID_34_);mask:url(#SVGID_35_);fill:url(#SVGID_37_);}
	.st15{clip-path:url(#SVGID_39_);fill:#AA6815;}
	.st16{clip-path:url(#SVGID_39_);fill:#0054A3;}
	.st17{opacity:0.8;clip-path:url(#SVGID_39_);}
	.st18{clip-path:url(#SVGID_41_);fill:#FFFFFF;}
	.st19{opacity:0.3;clip-path:url(#SVGID_39_);}
	
		.st20{clip-path:url(#SVGID_43_);fill:none;stroke:#FFFFFF;stroke-width:3.363;stroke-linecap:round;stroke-linejoin:round;stroke-miterlimit:10;}
</style>
<g>
	<defs>
		<rect id="SVGID_1_" x="-84" y="-120.28" width="841.89" height="595.28"/>
	</defs>
	<clipPath id="SVGID_2_">
		<use xlink:href="#SVGID_1_"  style="overflow:visible;"/>
	</clipPath>
	<g class="st0">
		<defs>
			<path id="SVGID_3_" d="M126.62,208.11c0,36.47,18.85,54.71,56.54,54.71c8.97,0,17.19-1.04,24.67-3.12
				c3.63-1.01,6.17-4.27,6.17-8.04c0-5.47-5.18-9.38-10.48-8.02c-8.22,2.1-16.98,2.76-26.28,1.99
				c-15.08-1.25-28.41-14.54-29.99-29.59c-3.01-28.53,9.45-42.8,37.38-42.8c6.6,0,12.9,0.77,18.92,2.31
				c5.29,1.35,10.45-2.56,10.45-8.02v0c0-3.77-2.54-7.03-6.17-8.04c-7.48-2.08-15.7-3.12-24.67-3.12
				C145.47,156.34,126.62,173.6,126.62,208.11"/>
		</defs>
		<clipPath id="SVGID_4_">
			<use xlink:href="#SVGID_3_"  style="overflow:visible;"/>
		</clipPath>
		
			<linearGradient id="SVGID_5_" gradientUnits="userSpaceOnUse" x1="-84" y1="474.9743" x2="-83" y2="474.9743" gradientTransform="matrix(-111.4413 26.0762 26.0762 111.4413 -21518.3828 -50545.3203)">
			<stop  offset="0" style="stop-color:#16336A"/>
			<stop  offset="0.3466" style="stop-color:#014183"/>
			<stop  offset="0.7095" style="stop-color:#0054A3"/>
			<stop  offset="1" style="stop-color:#0054A3"/>
		</linearGradient>
		<polygon class="st1" points="237.63,257.29 131.16,282.21 103,161.87 209.47,136.96 		"/>
	</g>
	<g class="st0">
		<defs>
			<path id="SVGID_6_" d="M240.74,157.08c-4.62,0-8.37,3.75-8.37,8.37v88.26c0,4.62,3.75,8.37,8.37,8.37h56.18
				c4.62,0,8.37-3.75,8.37-8.37v-0.15c0-4.62-3.75-8.37-8.37-8.37h-37.08c-4.62,0-8.37-3.75-8.37-8.37v-10.8
				c0-4.62,3.75-8.37,8.37-8.37h33.56c4.62,0,8.37-3.75,8.37-8.37v-0.66c0-4.62-3.75-8.37-8.37-8.37h-33.34
				c-4.62,0-8.37-3.75-8.37-8.37v-9.7c0-4.62,3.75-8.37,8.37-8.37h35.84c4.62,0,8.37-3.75,8.37-8.37c0-4.62-3.75-8.37-8.37-8.37
				H240.74z"/>
		</defs>
		<clipPath id="SVGID_7_">
			<use xlink:href="#SVGID_6_"  style="overflow:visible;"/>
		</clipPath>
		
			<linearGradient id="SVGID_8_" gradientUnits="userSpaceOnUse" x1="-84" y1="475" x2="-83" y2="475" gradientTransform="matrix(-80.6529 22.1834 22.1834 80.6529 -17001.1309 -36248.7109)">
			<stop  offset="0" style="stop-color:#16336A"/>
			<stop  offset="0.3466" style="stop-color:#014183"/>
			<stop  offset="0.7095" style="stop-color:#0054A3"/>
			<stop  offset="1" style="stop-color:#0054A3"/>
		</linearGradient>
		<polygon class="st2" points="332.13,254.7 237.49,280.73 205.52,164.46 300.16,138.43 		"/>
	</g>
	<g class="st0">
		<defs>
			<path id="SVGID_9_" d="M331.16,157.08c-4.36,0-7.89,3.53-7.89,7.89v89.09c0,4.36,3.53,7.89,7.89,7.89h4.05
				c4.36,0,7.89-3.53,7.89-7.89v-71.98c0-4.36,3.53-7.89,7.89-7.89h18.77c8.71,0,13.07,3.87,13.07,11.6
				c0,9.97-7.29,16.77-21.86,20.4c-3.54,0.88-6.05,4.02-6.05,7.66c0,1.61,0.5,3.19,1.42,4.52l28.17,40.34
				c1.48,2.11,3.89,3.37,6.47,3.37h4.86c6.46,0,10.18-7.34,6.36-12.55l-18.82-25.68c-2.67-3.64-1.77-8.81,2.03-11.24
				c11.85-7.59,17.77-16.73,17.77-27.41c0-18.75-10.72-28.12-32.16-28.12H331.16z"/>
		</defs>
		<clipPath id="SVGID_10_">
			<use xlink:href="#SVGID_9_"  style="overflow:visible;"/>
		</clipPath>
		
			<linearGradient id="SVGID_11_" gradientUnits="userSpaceOnUse" x1="-84" y1="475.0196" x2="-83" y2="475.0196" gradientTransform="matrix(174.0096 87.7008 87.7008 -174.0096 -26728.7598 90208.8984)">
			<stop  offset="0" style="stop-color:#BF700F"/>
			<stop  offset="1" style="stop-color:#FAB600"/>
		</linearGradient>
		<polygon class="st3" points="340.03,123.82 448.22,178.35 389.25,295.34 281.07,240.81 		"/>
	</g>
	<g class="st0">
		<defs>
			<path id="SVGID_12_" d="M498.14,157.08c-3.5,0-6.34,2.84-6.34,6.34v30.64c0,3.5-2.84,6.34-6.34,6.34h-39.09
				c-3.5,0-6.34-2.84-6.34-6.34v-30.64c0-3.5-2.84-6.34-6.34-6.34h-6.78c-3.5,0-6.34,2.84-6.34,6.34v92.33
				c0,3.5,2.84,6.34,6.34,6.34h6.78c3.5,0,6.34-2.84,6.34-6.34v-32.11c0-3.5,2.84-6.34,6.34-6.34h39.09c3.5,0,6.34,2.84,6.34,6.34
				v32.11c0,3.5,2.84,6.34,6.34,6.34h6.78c3.5,0,6.34-2.84,6.34-6.34v-92.33c0-3.5-2.84-6.34-6.34-6.34H498.14z"/>
		</defs>
		<clipPath id="SVGID_13_">
			<use xlink:href="#SVGID_12_"  style="overflow:visible;"/>
		</clipPath>
		
			<linearGradient id="SVGID_14_" gradientUnits="userSpaceOnUse" x1="-84" y1="475" x2="-83" y2="475" gradientTransform="matrix(186.2422 93.8661 93.8661 -186.2422 -28605.2539 96494.3203)">
			<stop  offset="0" style="stop-color:#BF700F"/>
			<stop  offset="1" style="stop-color:#FAB600"/>
		</linearGradient>
		<polygon class="st4" points="438.94,120.63 553.46,178.35 492.89,298.53 378.37,240.81 		"/>
	</g>
	<g class="st0">
		<defs>
			<path id="SVGID_15_" d="M564.58,166.75l-36.89,86.9c-1.7,4,1.24,8.44,5.58,8.44h6.85c2.39,0,4.55-1.45,5.45-3.67l27.72-68.1
				c1.98-4.86,8.85-4.9,10.88-0.06l7.6,18.13c1.63,3.88-1.22,8.16-5.43,8.16h-8.3c-2.41,0-4.59,1.48-5.47,3.72l-2.02,5.12
				c-1.53,3.86,1.32,8.05,5.47,8.05h22.3c2.38,0,4.52,1.43,5.43,3.62l8.95,21.41c0.92,2.19,3.06,3.62,5.43,3.62h6.34
				c5.04,0,8.43-5.16,6.42-9.79l-37.14-85.66c-2.52-5.8-8.24-9.56-14.57-9.56C572.82,157.08,567.07,160.89,564.58,166.75"/>
		</defs>
		<clipPath id="SVGID_16_">
			<use xlink:href="#SVGID_15_"  style="overflow:visible;"/>
		</clipPath>
		
			<linearGradient id="SVGID_17_" gradientUnits="userSpaceOnUse" x1="-84" y1="474.8211" x2="-83" y2="474.8211" gradientTransform="matrix(-54.7116 37.3186 37.3186 54.7116 -21716.8809 -22646.918)">
			<stop  offset="0" style="stop-color:#16336A"/>
			<stop  offset="0.3466" style="stop-color:#014183"/>
			<stop  offset="0.7095" style="stop-color:#0054A3"/>
			<stop  offset="1" style="stop-color:#0054A3"/>
		</linearGradient>
		<polygon class="st5" points="681.79,228.74 559.94,311.85 477.11,190.42 598.96,107.31 		"/>
	</g>
	<g class="st0">
		<defs>
			<rect id="SVGID_18_" x="-84" y="-120.28" width="841.89" height="595.28"/>
		</defs>
		<clipPath id="SVGID_19_">
			<use xlink:href="#SVGID_18_"  style="overflow:visible;"/>
		</clipPath>
		<path class="st6" d="M211.32,319.1c-1.47-0.99-2.63-2.35-3.48-4.07c-0.85-1.72-1.27-3.62-1.27-5.7c0-2.06,0.42-3.95,1.27-5.66
			c0.85-1.71,2.01-3.07,3.48-4.07c1.47-1,3.1-1.5,4.88-1.5c1.26,0,2.36,0.19,3.28,0.56c0.92,0.38,1.86,0.99,2.8,1.85
			c0.2,0.17,0.33,0.34,0.4,0.52c0.07,0.18,0.1,0.39,0.1,0.63c0,0.38-0.12,0.68-0.36,0.93c-0.24,0.24-0.52,0.37-0.84,0.37
			c-0.32,0-0.61-0.12-0.87-0.37c-0.68-0.66-1.35-1.13-1.99-1.42c-0.65-0.29-1.49-0.44-2.52-0.44c-1.3,0-2.49,0.39-3.58,1.15
			c-1.09,0.77-1.95,1.81-2.59,3.13c-0.64,1.32-0.96,2.76-0.96,4.31c0,1.57,0.32,3.02,0.96,4.33c0.64,1.31,1.5,2.35,2.59,3.12
			c1.09,0.77,2.28,1.15,3.58,1.15c1.59,0,3.12-0.62,4.59-1.85c0.28-0.22,0.56-0.34,0.82-0.34c0.32,0,0.58,0.13,0.79,0.38
			c0.21,0.25,0.31,0.59,0.31,1c0,0.39-0.13,0.74-0.4,1.04c-1.8,1.63-3.83,2.45-6.11,2.45C214.41,320.59,212.79,320.09,211.32,319.1"
			/>
		<path class="st6" d="M228.21,319.42c-1.05-0.66-1.86-1.59-2.44-2.77c-0.58-1.18-0.87-2.52-0.87-4.02c0-1.52,0.29-2.87,0.87-4.05
			c0.58-1.18,1.4-2.1,2.44-2.77c1.05-0.66,2.24-1,3.57-1c1.31,0,2.49,0.33,3.53,1c1.04,0.67,1.85,1.59,2.44,2.77
			c0.59,1.18,0.89,2.53,0.89,4.05c0,1.5-0.29,2.84-0.87,4.02c-0.58,1.18-1.39,2.1-2.43,2.77c-1.04,0.67-2.22,1-3.55,1
			C230.45,320.42,229.26,320.09,228.21,319.42 M234.06,317.21c0.67-0.45,1.2-1.07,1.57-1.87c0.38-0.8,0.56-1.7,0.56-2.71
			c0-1.01-0.19-1.92-0.56-2.73c-0.37-0.8-0.9-1.43-1.57-1.88c-0.67-0.45-1.43-0.67-2.28-0.67c-0.85,0-1.61,0.23-2.28,0.67
			c-0.67,0.45-1.2,1.08-1.58,1.88c-0.38,0.81-0.57,1.71-0.57,2.73c0,1.01,0.19,1.91,0.57,2.71c0.38,0.8,0.91,1.42,1.58,1.87
			c0.67,0.45,1.43,0.67,2.28,0.67C232.63,317.89,233.39,317.66,234.06,317.21"/>
		<path class="st6" d="M252.3,305.64c0.91,0.56,1.63,1.38,2.14,2.46c0.52,1.08,0.77,2.37,0.77,3.89v6.91c0,0.41-0.12,0.75-0.36,1.02
			c-0.24,0.27-0.54,0.41-0.91,0.41c-0.37,0-0.67-0.14-0.91-0.41c-0.24-0.27-0.36-0.61-0.36-1.02v-6.91c0-1.52-0.36-2.66-1.08-3.44
			c-0.72-0.78-1.68-1.17-2.88-1.17c-0.7,0-1.33,0.16-1.91,0.48c-0.58,0.32-1.02,0.75-1.35,1.29c-0.32,0.54-0.49,1.15-0.49,1.83v7.92
			c0,0.41-0.12,0.75-0.35,1.02c-0.23,0.27-0.54,0.41-0.92,0.41c-0.37,0-0.67-0.14-0.91-0.41c-0.24-0.27-0.36-0.61-0.36-1.02v-12.53
			c0-0.43,0.12-0.78,0.36-1.04c0.24-0.26,0.54-0.39,0.91-0.39c0.38,0,0.69,0.13,0.92,0.39c0.23,0.26,0.35,0.61,0.35,1.04v0.31
			c0.53-0.6,1.16-1.06,1.89-1.39c0.73-0.33,1.51-0.49,2.35-0.49C250.36,304.8,251.39,305.08,252.3,305.64"/>
		<path class="st6" d="M261.21,319.83c-1-0.39-1.78-0.91-2.35-1.55c-0.22-0.24-0.32-0.53-0.32-0.87c0-0.45,0.17-0.81,0.5-1.1
			c0.32-0.26,0.61-0.39,0.87-0.39c0.33,0,0.65,0.17,0.95,0.51c0.32,0.39,0.79,0.74,1.42,1.03c0.63,0.29,1.3,0.43,2.02,0.43
			c0.95,0,1.68-0.18,2.21-0.53c0.52-0.35,0.79-0.83,0.79-1.43c0-0.58-0.26-1.06-0.77-1.45c-0.52-0.38-1.39-0.71-2.62-0.97
			c-3.19-0.69-4.79-2.17-4.79-4.44c0-0.92,0.24-1.7,0.72-2.33c0.48-0.64,1.11-1.11,1.9-1.43c0.78-0.32,1.61-0.48,2.49-0.48
			c1.08,0,2.05,0.2,2.9,0.59c0.86,0.39,1.53,0.94,2.03,1.63c0.22,0.3,0.32,0.6,0.32,0.9c0,0.32-0.14,0.61-0.42,0.87
			c-0.18,0.15-0.41,0.23-0.7,0.23c-0.43,0-0.82-0.18-1.17-0.54c-0.42-0.43-0.85-0.73-1.32-0.91c-0.47-0.18-1.03-0.27-1.7-0.27
			c-0.76,0-1.39,0.14-1.88,0.44c-0.49,0.29-0.74,0.7-0.74,1.22c0,0.37,0.08,0.69,0.25,0.94c0.16,0.25,0.48,0.49,0.95,0.7
			c0.46,0.21,1.14,0.42,2.02,0.63c1.81,0.41,3.1,0.98,3.85,1.71c0.76,0.73,1.14,1.68,1.14,2.84c0,0.86-0.21,1.64-0.62,2.35
			c-0.42,0.7-1.03,1.26-1.83,1.66c-0.81,0.4-1.77,0.6-2.9,0.6C263.27,320.42,262.2,320.22,261.21,319.83"/>
		<path class="st6" d="M284.9,313.27c-0.22,0.24-0.49,0.35-0.82,0.35h-9.48c0.18,1.31,0.71,2.37,1.58,3.17
			c0.87,0.81,1.94,1.21,3.2,1.21c0.5,0,1.02-0.1,1.56-0.31c0.54-0.2,0.99-0.46,1.33-0.76c0.23-0.21,0.51-0.31,0.83-0.31
			c0.32,0,0.56,0.09,0.75,0.28c0.3,0.28,0.45,0.6,0.45,0.95c0,0.34-0.13,0.62-0.4,0.84c-0.57,0.51-1.27,0.92-2.11,1.24
			c-0.84,0.32-1.64,0.48-2.41,0.48c-1.36,0-2.58-0.33-3.67-1c-1.08-0.66-1.93-1.59-2.53-2.77c-0.61-1.18-0.91-2.52-0.91-4.02
			c0-1.5,0.29-2.84,0.86-4.03c0.57-1.19,1.37-2.12,2.39-2.78c1.02-0.66,2.18-1,3.48-1c1.28,0,2.38,0.32,3.32,0.96
			c0.93,0.64,1.65,1.53,2.14,2.67c0.5,1.14,0.75,2.45,0.75,3.93C285.22,312.74,285.11,313.03,284.9,313.27 M276.06,308.36
			c-0.76,0.75-1.23,1.75-1.43,3.01h8.3c-0.15-1.25-0.57-2.26-1.25-3.01c-0.68-0.75-1.57-1.12-2.67-1.12
			C277.8,307.24,276.81,307.62,276.06,308.36"/>
		<path class="st6" d="M288.82,301.89c-0.32-0.37-0.49-0.8-0.49-1.31c0-0.51,0.16-0.94,0.49-1.31c0.32-0.36,0.71-0.55,1.16-0.55
			c0.45,0,0.84,0.18,1.16,0.55c0.32,0.36,0.49,0.8,0.49,1.31c0,0.51-0.16,0.94-0.49,1.31c-0.32,0.37-0.71,0.55-1.16,0.55
			C289.53,302.44,289.15,302.25,288.82,301.89 M289.07,319.9c-0.24-0.27-0.36-0.61-0.36-1.02v-12.5c0-0.43,0.12-0.78,0.36-1.04
			c0.24-0.26,0.54-0.39,0.91-0.39c0.38,0,0.69,0.13,0.92,0.39c0.23,0.26,0.35,0.61,0.35,1.04v12.5c0,0.41-0.12,0.75-0.35,1.02
			c-0.23,0.27-0.54,0.41-0.92,0.41C289.62,320.31,289.32,320.17,289.07,319.9"/>
		<path class="st6" d="M297.3,319.64c-0.57-0.44-1.02-1.06-1.33-1.85c-0.32-0.8-0.48-1.69-0.48-2.68v-15.34
			c0-0.41,0.12-0.75,0.35-1.01c0.23-0.26,0.53-0.39,0.9-0.39s0.67,0.13,0.9,0.39c0.23,0.26,0.35,0.6,0.35,1.01v15.34
			c0,0.69,0.12,1.27,0.35,1.71c0.23,0.45,0.53,0.67,0.9,0.67h0.63c0.33,0,0.6,0.13,0.81,0.39c0.21,0.26,0.31,0.6,0.31,1.01
			s-0.16,0.75-0.48,1.01c-0.32,0.26-0.72,0.39-1.22,0.39h-0.05C298.52,320.31,297.87,320.08,297.3,319.64"/>
		<path class="st6" d="M305.59,317.58c0.33,0.49,0.5,1.16,0.5,2.02c0,0.77-0.15,1.59-0.46,2.47c-0.31,0.88-0.69,1.62-1.13,2.21
			c-0.45,0.59-0.87,0.88-1.25,0.88c-0.2,0-0.35-0.07-0.46-0.21c-0.11-0.14-0.16-0.31-0.16-0.52c0-0.22,0.04-0.43,0.12-0.63
			c0.08-0.2,0.22-0.43,0.4-0.69c0.22-0.34,0.37-0.62,0.47-0.86c0.1-0.23,0.15-0.51,0.15-0.83c0-0.28-0.06-0.52-0.16-0.72
			c-0.11-0.2-0.26-0.41-0.46-0.63c-0.22-0.24-0.38-0.47-0.5-0.67c-0.12-0.21-0.17-0.47-0.17-0.79c0-0.5,0.15-0.93,0.46-1.26
			c0.31-0.34,0.71-0.51,1.21-0.51C304.78,316.85,305.26,317.09,305.59,317.58"/>
		<path class="st6" d="M317.51,319.88c-0.25-0.28-0.38-0.63-0.38-1.04v-19.02c0-0.43,0.13-0.78,0.38-1.05
			c0.25-0.27,0.56-0.41,0.92-0.41h11.27c0.38,0,0.69,0.13,0.92,0.38c0.23,0.25,0.35,0.58,0.35,1c0,0.39-0.12,0.71-0.35,0.96
			c-0.23,0.24-0.54,0.36-0.92,0.36h-9.98v6.83h7.16c0.37,0,0.67,0.13,0.91,0.38c0.24,0.25,0.36,0.58,0.36,0.97
			c0,0.39-0.12,0.71-0.36,0.97s-0.54,0.38-0.91,0.38h-7.16v7.02h9.98c0.38,0,0.69,0.12,0.92,0.36c0.23,0.24,0.35,0.56,0.35,0.96
			c0,0.41-0.12,0.74-0.35,1c-0.23,0.25-0.54,0.38-0.92,0.38h-11.27C318.07,320.3,317.76,320.17,317.51,319.88"/>
		<path class="st6" d="M344.3,319.13c0,0.34-0.1,0.62-0.31,0.84c-0.21,0.22-0.48,0.34-0.81,0.34c-0.4,0-0.7-0.15-0.9-0.45
			l-3.96-5.34l-3.76,5.34c-0.25,0.3-0.55,0.45-0.9,0.45c-0.33,0-0.6-0.11-0.79-0.34c-0.19-0.23-0.29-0.51-0.29-0.84
			c0-0.38,0.12-0.72,0.35-1.04l3.87-5.45l-4.12-5.48c-0.25-0.34-0.37-0.69-0.37-1.07c0-0.32,0.1-0.59,0.29-0.82
			c0.19-0.23,0.46-0.34,0.81-0.34c0.4,0,0.72,0.16,0.95,0.48l4.09,5.51l3.67-5.51c0.22-0.32,0.52-0.48,0.92-0.48
			c0.33,0,0.59,0.12,0.79,0.35c0.19,0.23,0.29,0.52,0.29,0.86c0,0.41-0.12,0.79-0.35,1.12l-3.77,5.53l3.96,5.34
			C344.18,318.42,344.3,318.75,344.3,319.13"/>
		<path class="st6" d="M357.85,305.85c1.06,0.68,1.88,1.62,2.48,2.81c0.6,1.19,0.9,2.52,0.9,3.98s-0.28,2.79-0.84,3.98
			c-0.56,1.19-1.32,2.12-2.29,2.8c-0.97,0.67-2.06,1.01-3.26,1.01c-0.96,0-1.86-0.23-2.69-0.67c-0.83-0.45-1.54-1.08-2.12-1.88v7.59
			c0,0.43-0.12,0.78-0.35,1.04c-0.23,0.26-0.54,0.39-0.92,0.39c-0.37,0-0.67-0.13-0.91-0.39c-0.24-0.26-0.36-0.61-0.36-1.04v-12.81
			c0-1.46,0.3-2.79,0.91-3.98c0.61-1.19,1.43-2.13,2.47-2.81c1.04-0.68,2.2-1.02,3.48-1.02
			C355.63,304.82,356.8,305.17,357.85,305.85 M356.6,317.2c0.67-0.46,1.2-1.09,1.6-1.88c0.39-0.79,0.58-1.69,0.58-2.68
			s-0.2-1.89-0.58-2.7c-0.39-0.81-0.92-1.44-1.6-1.9c-0.67-0.46-1.43-0.69-2.26-0.69c-0.83,0-1.58,0.23-2.26,0.69
			c-0.67,0.46-1.2,1.09-1.58,1.9c-0.38,0.8-0.58,1.7-0.58,2.7s0.19,1.89,0.58,2.68c0.38,0.8,0.91,1.42,1.58,1.88
			c0.67,0.46,1.43,0.69,2.26,0.69C355.18,317.89,355.93,317.66,356.6,317.2"/>
		<path class="st6" d="M376.94,313.27c-0.22,0.24-0.49,0.35-0.82,0.35h-9.48c0.18,1.31,0.71,2.37,1.58,3.17
			c0.87,0.81,1.94,1.21,3.2,1.21c0.5,0,1.02-0.1,1.56-0.31c0.54-0.2,0.99-0.46,1.33-0.76c0.23-0.21,0.51-0.31,0.83-0.31
			c0.32,0,0.56,0.09,0.75,0.28c0.3,0.28,0.45,0.6,0.45,0.95c0,0.34-0.13,0.62-0.4,0.84c-0.57,0.51-1.27,0.92-2.11,1.24
			c-0.84,0.32-1.64,0.48-2.41,0.48c-1.36,0-2.58-0.33-3.67-1c-1.08-0.66-1.93-1.59-2.53-2.77c-0.61-1.18-0.91-2.52-0.91-4.02
			c0-1.5,0.29-2.84,0.86-4.03c0.57-1.19,1.37-2.12,2.39-2.78c1.02-0.66,2.18-1,3.48-1c1.28,0,2.38,0.32,3.32,0.96
			c0.93,0.64,1.65,1.53,2.14,2.67c0.5,1.14,0.75,2.45,0.75,3.93C377.26,312.74,377.16,313.03,376.94,313.27 M368.1,308.36
			c-0.76,0.75-1.23,1.75-1.43,3.01h8.3c-0.15-1.25-0.57-2.26-1.25-3.01c-0.68-0.75-1.57-1.12-2.67-1.12
			C369.84,307.24,368.86,307.62,368.1,308.36"/>
		<path class="st6" d="M389.26,305.22c0.5,0.3,0.75,0.68,0.75,1.12c0,0.13-0.01,0.23-0.02,0.28c-0.15,0.6-0.48,0.9-1,0.9
			c-0.08,0-0.21-0.02-0.37-0.06c-0.67-0.13-1.2-0.2-1.62-0.2c-1.2,0-2.16,0.31-2.89,0.93c-0.73,0.62-1.1,1.45-1.1,2.5v8.21
			c0,0.45-0.11,0.79-0.31,1.04c-0.21,0.24-0.52,0.36-0.93,0.36c-0.4,0-0.71-0.12-0.92-0.35c-0.22-0.23-0.32-0.58-0.32-1.05v-12.56
			c0-0.45,0.11-0.8,0.32-1.04c0.22-0.24,0.52-0.37,0.92-0.37c0.83,0,1.25,0.47,1.25,1.4v0.53c0.5-0.65,1.11-1.17,1.84-1.55
			c0.73-0.37,1.51-0.56,2.35-0.56C388.07,304.77,388.76,304.92,389.26,305.22"/>
		<path class="st6" d="M399.2,317.89c0.21,0.26,0.31,0.6,0.31,1.01c0,0.41-0.14,0.75-0.41,1.01c-0.27,0.26-0.63,0.39-1.06,0.39
			h-0.45c-0.82,0-1.56-0.24-2.23-0.72c-0.67-0.48-1.2-1.13-1.58-1.95c-0.38-0.82-0.57-1.75-0.57-2.78v-6.94h-1.15
			c-0.35,0-0.63-0.11-0.85-0.34c-0.21-0.22-0.32-0.51-0.32-0.84c0-0.37,0.11-0.67,0.32-0.9c0.22-0.23,0.5-0.34,0.85-0.34h1.15v-4.05
			c0-0.41,0.12-0.75,0.35-1.01c0.23-0.26,0.53-0.39,0.9-0.39s0.67,0.13,0.9,0.39c0.23,0.26,0.35,0.6,0.35,1.01v4.05h2.12
			c0.35,0,0.63,0.11,0.85,0.34c0.21,0.23,0.32,0.53,0.32,0.9c0,0.34-0.11,0.62-0.32,0.84c-0.22,0.22-0.5,0.34-0.85,0.34h-2.12v6.94
			c0,0.75,0.18,1.38,0.55,1.88c0.37,0.51,0.81,0.76,1.35,0.76h0.85C398.74,317.5,398.99,317.63,399.2,317.89"/>
		<path class="st6" d="M402.99,301.89c-0.32-0.37-0.49-0.8-0.49-1.31c0-0.51,0.16-0.94,0.49-1.31c0.32-0.36,0.71-0.55,1.16-0.55
			c0.45,0,0.84,0.18,1.16,0.55c0.32,0.36,0.49,0.8,0.49,1.31c0,0.51-0.16,0.94-0.49,1.31c-0.32,0.37-0.71,0.55-1.16,0.55
			C403.7,302.44,403.31,302.25,402.99,301.89 M403.24,319.9c-0.24-0.27-0.36-0.61-0.36-1.02v-12.5c0-0.43,0.12-0.78,0.36-1.04
			c0.24-0.26,0.54-0.39,0.91-0.39c0.38,0,0.69,0.13,0.92,0.39c0.23,0.26,0.35,0.61,0.35,1.04v12.5c0,0.41-0.12,0.75-0.35,1.02
			c-0.23,0.27-0.54,0.41-0.92,0.41C403.78,320.31,403.48,320.17,403.24,319.9"/>
		<path class="st6" d="M411.93,319.83c-1-0.39-1.78-0.91-2.35-1.55c-0.22-0.24-0.32-0.53-0.32-0.87c0-0.45,0.17-0.81,0.5-1.1
			c0.32-0.26,0.61-0.39,0.87-0.39c0.33,0,0.65,0.17,0.95,0.51c0.32,0.39,0.79,0.74,1.42,1.03c0.63,0.29,1.3,0.43,2.02,0.43
			c0.95,0,1.68-0.18,2.21-0.53c0.52-0.35,0.79-0.83,0.79-1.43c0-0.58-0.26-1.06-0.77-1.45c-0.52-0.38-1.39-0.71-2.62-0.97
			c-3.19-0.69-4.79-2.17-4.79-4.44c0-0.92,0.24-1.7,0.72-2.33c0.48-0.64,1.11-1.11,1.9-1.43c0.78-0.32,1.61-0.48,2.49-0.48
			c1.08,0,2.05,0.2,2.9,0.59c0.86,0.39,1.53,0.94,2.03,1.63c0.22,0.3,0.32,0.6,0.32,0.9c0,0.32-0.14,0.61-0.42,0.87
			c-0.18,0.15-0.41,0.23-0.7,0.23c-0.43,0-0.82-0.18-1.17-0.54c-0.42-0.43-0.85-0.73-1.32-0.91c-0.47-0.18-1.03-0.27-1.7-0.27
			c-0.76,0-1.39,0.14-1.88,0.44c-0.49,0.29-0.74,0.7-0.74,1.22c0,0.37,0.08,0.69,0.25,0.94c0.16,0.25,0.48,0.49,0.95,0.7
			c0.46,0.21,1.14,0.42,2.02,0.63c1.81,0.41,3.1,0.98,3.85,1.71c0.76,0.73,1.14,1.68,1.14,2.84c0,0.86-0.21,1.64-0.62,2.35
			c-0.42,0.7-1.03,1.26-1.83,1.66c-0.81,0.4-1.77,0.6-2.9,0.6C413.99,320.42,412.93,320.22,411.93,319.83"/>
		<path class="st6" d="M435.62,313.27c-0.22,0.24-0.49,0.35-0.82,0.35h-9.48c0.18,1.31,0.71,2.37,1.58,3.17
			c0.87,0.81,1.94,1.21,3.2,1.21c0.5,0,1.02-0.1,1.56-0.31c0.54-0.2,0.98-0.46,1.33-0.76c0.23-0.21,0.51-0.31,0.83-0.31
			c0.32,0,0.56,0.09,0.75,0.28c0.3,0.28,0.45,0.6,0.45,0.95c0,0.34-0.13,0.62-0.4,0.84c-0.57,0.51-1.27,0.92-2.11,1.24
			c-0.84,0.32-1.64,0.48-2.41,0.48c-1.36,0-2.58-0.33-3.67-1c-1.08-0.66-1.93-1.59-2.53-2.77c-0.61-1.18-0.91-2.52-0.91-4.02
			c0-1.5,0.29-2.84,0.86-4.03c0.57-1.19,1.37-2.12,2.39-2.78c1.02-0.66,2.18-1,3.48-1c1.28,0,2.39,0.32,3.32,0.96
			c0.93,0.64,1.65,1.53,2.14,2.67c0.5,1.14,0.75,2.45,0.75,3.93C435.94,312.74,435.83,313.03,435.62,313.27 M426.78,308.36
			c-0.76,0.75-1.23,1.75-1.43,3.01h8.3c-0.15-1.25-0.57-2.26-1.25-3.01c-0.68-0.75-1.57-1.12-2.67-1.12
			C428.52,307.24,427.53,307.62,426.78,308.36"/>
		<path class="st6" d="M458.41,313.27c-0.22,0.24-0.49,0.35-0.82,0.35h-9.48c0.18,1.31,0.71,2.37,1.58,3.17
			c0.87,0.81,1.94,1.21,3.2,1.21c0.5,0,1.02-0.1,1.56-0.31c0.54-0.2,0.99-0.46,1.33-0.76c0.23-0.21,0.51-0.31,0.83-0.31
			c0.32,0,0.56,0.09,0.75,0.28c0.3,0.28,0.45,0.6,0.45,0.95c0,0.34-0.13,0.62-0.4,0.84c-0.57,0.51-1.27,0.92-2.11,1.24
			c-0.84,0.32-1.64,0.48-2.41,0.48c-1.36,0-2.58-0.33-3.67-1c-1.08-0.66-1.92-1.59-2.53-2.77c-0.61-1.18-0.91-2.52-0.91-4.02
			c0-1.5,0.29-2.84,0.86-4.03c0.57-1.19,1.37-2.12,2.39-2.78c1.02-0.66,2.18-1,3.48-1c1.28,0,2.38,0.32,3.32,0.96
			c0.93,0.64,1.65,1.53,2.14,2.67c0.5,1.14,0.75,2.45,0.75,3.93C458.74,312.74,458.63,313.03,458.41,313.27 M449.57,308.36
			c-0.76,0.75-1.23,1.75-1.43,3.01h8.3c-0.15-1.25-0.57-2.26-1.25-3.01c-0.68-0.75-1.57-1.12-2.67-1.12
			C451.31,307.24,450.33,307.62,449.57,308.36"/>
		<path class="st6" d="M471.85,305.64c0.91,0.56,1.63,1.38,2.14,2.46c0.52,1.08,0.77,2.37,0.77,3.89v6.91
			c0,0.41-0.12,0.75-0.36,1.02c-0.24,0.27-0.54,0.41-0.91,0.41c-0.37,0-0.67-0.14-0.91-0.41c-0.24-0.27-0.36-0.61-0.36-1.02v-6.91
			c0-1.52-0.36-2.66-1.08-3.44c-0.72-0.78-1.68-1.17-2.88-1.17c-0.7,0-1.33,0.16-1.91,0.48c-0.58,0.32-1.02,0.75-1.35,1.29
			c-0.32,0.54-0.49,1.15-0.49,1.83v7.92c0,0.41-0.12,0.75-0.35,1.02c-0.23,0.27-0.54,0.41-0.92,0.41c-0.37,0-0.67-0.14-0.91-0.41
			c-0.24-0.27-0.36-0.61-0.36-1.02v-12.53c0-0.43,0.12-0.78,0.36-1.04c0.24-0.26,0.54-0.39,0.91-0.39c0.38,0,0.69,0.13,0.92,0.39
			c0.23,0.26,0.35,0.61,0.35,1.04v0.31c0.53-0.6,1.16-1.06,1.9-1.39c0.73-0.33,1.51-0.49,2.34-0.49
			C469.91,304.8,470.94,305.08,471.85,305.64"/>
		<path class="st6" d="M499.44,318.99c0,0.37-0.11,0.69-0.34,0.94c-0.22,0.25-0.53,0.38-0.91,0.38c-0.48,0-0.86-0.23-1.12-0.7
			l-4.29-7.76h-0.45h-3.19v7c0,0.41-0.12,0.76-0.36,1.04c-0.24,0.28-0.55,0.42-0.93,0.42c-0.37,0-0.67-0.14-0.92-0.42
			c-0.25-0.28-0.38-0.63-0.38-1.04v-19.02c0-0.43,0.13-0.78,0.38-1.05c0.25-0.27,0.56-0.41,0.92-0.41h4.49
			c1.23,0,2.33,0.29,3.3,0.87c0.97,0.58,1.73,1.39,2.27,2.44c0.54,1.05,0.81,2.25,0.81,3.6c0,1.33-0.3,2.51-0.9,3.54
			c-0.6,1.03-1.41,1.81-2.44,2.33l3.81,6.91C499.35,318.36,499.44,318.67,499.44,318.99 M492.33,309.15c1.13,0,2.06-0.36,2.79-1.08
			c0.73-0.72,1.1-1.65,1.1-2.8c0-1.24-0.36-2.25-1.1-3.03c-0.73-0.79-1.66-1.18-2.79-1.18h-3.19v8.09H492.33z"/>
		<path class="st6" d="M501.57,320.18c-0.34-0.38-0.51-0.84-0.51-1.36c0-0.54,0.17-1.01,0.51-1.39c0.34-0.38,0.74-0.58,1.21-0.58
			c0.46,0,0.87,0.19,1.21,0.58c0.34,0.38,0.51,0.85,0.51,1.39c0,0.52-0.17,0.98-0.5,1.36c-0.33,0.38-0.74,0.58-1.22,0.58
			C502.31,320.75,501.91,320.56,501.57,320.18"/>
		<path class="st6" d="M508.61,319.88c-0.25-0.28-0.38-0.63-0.38-1.04v-19.02c0-0.43,0.13-0.78,0.38-1.05
			c0.25-0.27,0.56-0.41,0.92-0.41c0.38,0,0.69,0.14,0.94,0.41s0.36,0.62,0.36,1.05v8.06h11.57v-8.06c0-0.43,0.12-0.78,0.37-1.05
			s0.56-0.41,0.92-0.41c0.37,0,0.67,0.14,0.91,0.41s0.36,0.62,0.36,1.05v19.02c0,0.43-0.12,0.78-0.36,1.05s-0.54,0.41-0.91,0.41
			c-0.37,0-0.67-0.14-0.92-0.42c-0.25-0.28-0.37-0.63-0.37-1.04v-8.37h-11.57v8.37c0,0.41-0.12,0.76-0.36,1.04
			c-0.24,0.28-0.55,0.42-0.94,0.42C509.17,320.3,508.86,320.17,508.61,319.88"/>
		<path class="st6" d="M529.22,320.18c-0.34-0.38-0.51-0.84-0.51-1.36c0-0.54,0.17-1.01,0.51-1.39c0.34-0.38,0.74-0.58,1.21-0.58
			c0.46,0,0.87,0.19,1.21,0.58c0.34,0.38,0.51,0.85,0.51,1.39c0,0.52-0.17,0.98-0.5,1.36c-0.33,0.38-0.74,0.58-1.22,0.58
			C529.97,320.75,529.56,320.56,529.22,320.18"/>
	</g>
	<g class="st0">
		<defs>
			<path id="SVGID_20_" d="M544.93,317.48c-0.51-0.53-0.76-1.33-0.76-2.38c0-0.84,0.25-1.66,0.76-2.44
				c0.51-0.79,1.24-1.61,2.21-2.47l0.32-0.28l4.69,5.26l-0.17,0.22c-0.83,0.98-1.62,1.7-2.36,2.18c-0.74,0.48-1.58,0.71-2.51,0.71
				C546.17,318.28,545.44,318.02,544.93,317.48 M546.47,305.41c-0.82-0.92-1.22-1.87-1.22-2.87c0-0.68,0.23-1.25,0.69-1.73
				c0.46-0.48,1.04-0.72,1.76-0.72c0.76,0,1.37,0.25,1.81,0.76c0.44,0.5,0.66,1.13,0.66,1.88c-0.02,0.71-0.17,1.36-0.45,1.95
				c-0.28,0.59-0.83,1.25-1.65,1.98l-0.28,0.23L546.47,305.41z M545.35,298.47c-0.7,0.41-1.25,0.98-1.65,1.71
				c-0.4,0.73-0.6,1.54-0.6,2.42c0,1.55,0.58,3.01,1.74,4.35l1.3,1.46l-0.15,0.11c-1.41,1.27-2.46,2.41-3.14,3.41
				c-0.68,1-1.02,2.09-1.02,3.27c0,1.71,0.48,3.05,1.45,4.02c0.96,0.97,2.24,1.46,3.84,1.46c1.25,0,2.38-0.33,3.4-0.98
				c1.02-0.66,2-1.58,2.93-2.78l0.13-0.17l2.74,3.09c0.3,0.3,0.56,0.45,0.8,0.45c0.27,0,0.53-0.15,0.8-0.45
				c0.23-0.26,0.35-0.52,0.35-0.76c0-0.28-0.15-0.59-0.45-0.93l-2.77-3.12l2.04-2.44c0.23-0.28,0.35-0.58,0.35-0.9
				c0-0.32-0.13-0.62-0.4-0.9c-0.2-0.23-0.39-0.34-0.58-0.34c-0.25,0-0.53,0.2-0.85,0.59l-1.99,2.39l-4.49-5.06
				c1.15-1.03,1.96-1.95,2.43-2.77c0.47-0.81,0.72-1.75,0.74-2.82c0-0.92-0.2-1.76-0.6-2.51c-0.4-0.76-0.95-1.35-1.65-1.78
				c-0.7-0.43-1.49-0.65-2.37-0.65C546.82,297.86,546.04,298.06,545.35,298.47"/>
		</defs>
		<clipPath id="SVGID_21_">
			<use xlink:href="#SVGID_20_"  style="overflow:visible;"/>
		</clipPath>
		
			<linearGradient id="SVGID_22_" gradientUnits="userSpaceOnUse" x1="-84" y1="475" x2="-83" y2="475" gradientTransform="matrix(16.4348 0 0 -16.4348 1922.3516 8115.8066)">
			<stop  offset="0" style="stop-color:#BF700F"/>
			<stop  offset="1" style="stop-color:#FAB600"/>
		</linearGradient>
		<rect x="541.83" y="297.86" class="st7" width="16.43" height="22.84"/>
	</g>
	<g class="st0">
		<defs>
			<rect id="SVGID_23_" x="-84" y="-120.28" width="841.89" height="595.28"/>
		</defs>
		<clipPath id="SVGID_24_">
			<use xlink:href="#SVGID_23_"  style="overflow:visible;"/>
		</clipPath>
		<path class="st8" d="M578.15,305.85c1.04,0.68,1.86,1.62,2.47,2.81c0.61,1.19,0.91,2.52,0.91,3.98v6.27
			c0,0.41-0.12,0.75-0.36,1.03c-0.24,0.27-0.54,0.41-0.91,0.41c-0.37,0-0.67-0.14-0.91-0.41c-0.24-0.27-0.36-0.61-0.36-1.03v-1.04
			c-0.58,0.8-1.29,1.43-2.12,1.88c-0.83,0.45-1.73,0.67-2.69,0.67c-1.2,0-2.28-0.34-3.26-1.01c-0.97-0.67-1.74-1.61-2.29-2.8
			c-0.56-1.19-0.84-2.51-0.84-3.98s0.3-2.79,0.9-3.98c0.6-1.19,1.42-2.13,2.48-2.81c1.05-0.68,2.22-1.02,3.5-1.02
			C575.95,304.82,577.11,305.17,578.15,305.85 M576.93,317.2c0.67-0.46,1.2-1.09,1.58-1.88c0.38-0.79,0.57-1.69,0.57-2.68
			s-0.19-1.89-0.57-2.7c-0.38-0.81-0.91-1.44-1.58-1.9c-0.67-0.46-1.43-0.69-2.26-0.69c-0.83,0-1.58,0.23-2.26,0.69
			c-0.67,0.46-1.21,1.09-1.6,1.9c-0.39,0.8-0.59,1.7-0.59,2.7s0.2,1.89,0.59,2.68c0.39,0.8,0.92,1.42,1.6,1.88
			c0.67,0.46,1.42,0.69,2.26,0.69C575.5,317.89,576.25,317.66,576.93,317.2"/>
		<path class="st8" d="M597.49,305.3c0.23,0.26,0.35,0.61,0.35,1.04v12.53c0,0.41-0.12,0.75-0.35,1.02
			c-0.23,0.27-0.54,0.41-0.92,0.41c-0.37,0-0.67-0.14-0.91-0.41c-0.24-0.27-0.36-0.61-0.36-1.02v-0.31c-0.53,0.6-1.16,1.06-1.9,1.39
			c-0.73,0.33-1.51,0.49-2.34,0.49c-1.15,0-2.18-0.28-3.09-0.84c-0.91-0.56-1.63-1.38-2.14-2.46c-0.52-1.08-0.77-2.38-0.77-3.89
			v-6.91c0-0.41,0.12-0.75,0.36-1.03c0.24-0.27,0.54-0.41,0.91-0.41c0.37,0,0.67,0.14,0.91,0.41c0.24,0.27,0.36,0.61,0.36,1.03v6.91
			c0,1.52,0.36,2.67,1.08,3.44c0.72,0.78,1.68,1.17,2.88,1.17c0.7,0,1.33-0.16,1.91-0.48c0.57-0.32,1.02-0.75,1.35-1.29
			c0.32-0.54,0.49-1.15,0.49-1.83v-7.92c0-0.43,0.12-0.78,0.36-1.04c0.24-0.26,0.54-0.39,0.91-0.39
			C596.95,304.91,597.26,305.04,597.49,305.3"/>
		<path class="st8" d="M615.02,298.76c0.23,0.26,0.35,0.61,0.35,1.04v12.81c0,1.46-0.3,2.79-0.91,3.98
			c-0.61,1.19-1.43,2.13-2.47,2.81c-1.04,0.68-2.2,1.03-3.48,1.03c-1.28,0-2.45-0.34-3.5-1.03c-1.06-0.68-1.88-1.62-2.48-2.81
			c-0.6-1.19-0.9-2.51-0.9-3.98s0.28-2.79,0.84-3.98c0.56-1.19,1.32-2.12,2.29-2.8c0.97-0.67,2.06-1.01,3.26-1.01
			c0.96,0,1.86,0.22,2.69,0.67c0.83,0.45,1.54,1.08,2.12,1.88v-7.59c0-0.43,0.12-0.78,0.36-1.04c0.24-0.26,0.54-0.39,0.91-0.39
			C614.48,298.36,614.79,298.49,615.02,298.76 M610.77,317.2c0.67-0.46,1.2-1.09,1.58-1.9c0.38-0.8,0.57-1.7,0.57-2.7
			c0-0.99-0.19-1.89-0.57-2.68c-0.38-0.8-0.91-1.42-1.58-1.88c-0.67-0.46-1.43-0.69-2.26-0.69c-0.83,0-1.58,0.23-2.26,0.69
			c-0.67,0.46-1.21,1.09-1.6,1.88c-0.39,0.8-0.59,1.69-0.59,2.68c0,0.99,0.2,1.89,0.59,2.7c0.39,0.81,0.92,1.44,1.6,1.9
			c0.67,0.46,1.42,0.69,2.26,0.69C609.34,317.89,610.1,317.66,610.77,317.2"/>
		<path class="st8" d="M620.22,301.89c-0.32-0.37-0.49-0.8-0.49-1.31c0-0.51,0.16-0.94,0.49-1.31c0.32-0.36,0.71-0.55,1.16-0.55
			c0.45,0,0.84,0.18,1.16,0.55c0.32,0.36,0.49,0.8,0.49,1.31c0,0.51-0.16,0.94-0.49,1.31c-0.32,0.37-0.71,0.55-1.16,0.55
			C620.93,302.44,620.54,302.25,620.22,301.89 M620.47,319.9c-0.24-0.27-0.36-0.61-0.36-1.02v-12.5c0-0.43,0.12-0.78,0.36-1.04
			c0.24-0.26,0.54-0.39,0.91-0.39c0.38,0,0.69,0.13,0.92,0.39c0.23,0.26,0.35,0.61,0.35,1.04v12.5c0,0.41-0.12,0.75-0.35,1.02
			c-0.23,0.27-0.54,0.41-0.92,0.41C621.01,320.31,620.71,320.17,620.47,319.9"/>
		<path class="st8" d="M633.96,317.89c0.21,0.26,0.31,0.6,0.31,1.01c0,0.41-0.14,0.75-0.41,1.01c-0.27,0.26-0.63,0.39-1.06,0.39
			h-0.45c-0.82,0-1.56-0.24-2.23-0.72c-0.67-0.48-1.2-1.13-1.58-1.95c-0.38-0.82-0.57-1.75-0.57-2.78v-6.94h-1.15
			c-0.35,0-0.63-0.11-0.85-0.34c-0.22-0.22-0.32-0.51-0.32-0.84c0-0.37,0.11-0.67,0.32-0.9c0.22-0.23,0.5-0.34,0.85-0.34h1.15v-4.05
			c0-0.41,0.12-0.75,0.35-1.01c0.23-0.26,0.53-0.39,0.9-0.39c0.37,0,0.66,0.13,0.9,0.39c0.23,0.26,0.35,0.6,0.35,1.01v4.05h2.12
			c0.35,0,0.63,0.11,0.85,0.34c0.21,0.23,0.32,0.53,0.32,0.9c0,0.34-0.11,0.62-0.32,0.84c-0.22,0.22-0.5,0.34-0.85,0.34h-2.12v6.94
			c0,0.75,0.18,1.38,0.55,1.88c0.37,0.51,0.81,0.76,1.35,0.76h0.85C633.5,317.5,633.75,317.63,633.96,317.89"/>
	</g>
	<g class="st0">
		<defs>
			<path id="SVGID_25_" d="M189.93,323.2c0.02,0,0.04,0,0.06-0.01C189.98,323.2,189.95,323.2,189.93,323.2 M65.1,234.34
				c10.61,60.13,67.15,98.35,124.83,88.86c-3.27,0.09-88.19-47.81-125.94-117.85C63.06,214.86,63.38,224.59,65.1,234.34
				 M63.99,205.35c4.17-42.3,33.28-79.96,75.26-93.32c23.1-7.35,46.66-6.61,67.79,0.51c-25.85-14.82-57.34-19.8-88.39-11.45
				l-4.67,1.26c-8,2.15-16.68,1.32-23.71-3.05c-10.2-6.33-18.91-20.53-3.98-52.3C34.81,104.43,39.34,159.61,63.99,205.35"/>
		</defs>
		<clipPath id="SVGID_26_">
			<use xlink:href="#SVGID_25_"  style="overflow:visible;"/>
		</clipPath>
		
			<linearGradient id="SVGID_27_" gradientUnits="userSpaceOnUse" x1="-84" y1="474.9411" x2="-83" y2="474.9411" gradientTransform="matrix(41.5389 253.3503 253.3503 -41.5389 -116734.4922 41088.6836)">
			<stop  offset="0" style="stop-color:#0054A3"/>
			<stop  offset="0.0792" style="stop-color:#00509C"/>
			<stop  offset="0.1992" style="stop-color:#00478C"/>
			<stop  offset="0.3442" style="stop-color:#113872"/>
			<stop  offset="0.3879" style="stop-color:#16336A"/>
			<stop  offset="0.545" style="stop-color:#014183"/>
			<stop  offset="0.7095" style="stop-color:#0054A3"/>
			<stop  offset="0.8655" style="stop-color:#034081"/>
			<stop  offset="1" style="stop-color:#16336A"/>
		</linearGradient>
		<polygon class="st9" points="202.54,19.51 252.66,325.22 39.32,360.19 -10.8,54.48 		"/>
	</g>
	<g class="st0">
		<defs>
			<path id="SVGID_28_" d="M112.97,44.43c-12.4,3.34-19.74,16.09-16.41,28.49c3.34,12.4,16.09,19.74,28.49,16.41
				c12.4-3.33,19.74-16.09,16.41-28.49c-2.79-10.38-12.18-17.21-22.43-17.21C117.02,43.63,114.99,43.89,112.97,44.43"/>
		</defs>
		<clipPath id="SVGID_29_">
			<use xlink:href="#SVGID_28_"  style="overflow:visible;"/>
		</clipPath>
		
			<linearGradient id="SVGID_30_" gradientUnits="userSpaceOnUse" x1="-84" y1="475.0088" x2="-83" y2="475.0088" gradientTransform="matrix(-14.963 -44.0191 -44.0191 14.963 19778.9199 -10715.4482)">
			<stop  offset="0" style="stop-color:#BF700F"/>
			<stop  offset="1" style="stop-color:#FAB600"/>
		</linearGradient>
		<polygon class="st10" points="98.57,108.38 78.28,48.71 139.45,27.92 159.73,87.59 		"/>
	</g>
	<g class="st0">
		<defs>
			<rect id="SVGID_31_" x="-84" y="-120.28" width="841.89" height="595.28"/>
		</defs>
		<clipPath id="SVGID_32_">
			<use xlink:href="#SVGID_31_"  style="overflow:visible;"/>
		</clipPath>
		<path class="st11" d="M139.26,112.04c23.1-7.35,46.66-6.61,67.79,0.51c-13.65-5.86-66.03-21.13-108.95,9.97
			c-42.81,31.02-34.15,82.54-34.1,82.83c0,0,0,0.01,0.01,0.01c0,0,0.01,0,0.01,0C68.18,163.05,97.27,125.4,139.26,112.04"/>
		<path class="st11" d="M188.5,322.71c-11.77-5.19-88.99-51.48-124.5-117.35C64.01,205.36,86.21,289.91,188.5,322.71"/>
	</g>
	<g class="st0">
		<defs>
			<path id="SVGID_33_" d="M46.36,146.03c0.07-2.24,8.07-44.76,43.91-46.72c-10.2-6.33-18.91-20.53-3.98-52.3
				C55.52,81.33,44.78,114.84,46.36,146.03"/>
		</defs>
		<clipPath id="SVGID_34_">
			<use xlink:href="#SVGID_33_"  style="overflow:visible;"/>
		</clipPath>
		<defs>
			<filter id="Adobe_OpacityMaskFilter" filterUnits="userSpaceOnUse" x="29.37" y="39.93" width="76.31" height="113.18">
				<feColorMatrix  type="matrix" values="1 0 0 0 0  0 1 0 0 0  0 0 1 0 0  0 0 0 1 0"/>
			</filter>
		</defs>
		<mask maskUnits="userSpaceOnUse" x="29.37" y="39.93" width="76.31" height="113.18" id="SVGID_35_">
			<g class="st12">
				
					<linearGradient id="SVGID_36_" gradientUnits="userSpaceOnUse" x1="-84" y1="475.0172" x2="-83" y2="475.0172" gradientTransform="matrix(10.8037 67.7123 67.7123 -10.8037 -31197.5645 10865.5)">
					<stop  offset="0" style="stop-color:#999999"/>
					<stop  offset="0.6" style="stop-color:#000000"/>
					<stop  offset="1" style="stop-color:#000000"/>
				</linearGradient>
				<polygon class="st13" points="89.14,39.93 105.68,143.57 45.91,153.11 29.37,49.46 				"/>
			</g>
		</mask>
		
			<linearGradient id="SVGID_37_" gradientUnits="userSpaceOnUse" x1="-84" y1="475.0172" x2="-83" y2="475.0172" gradientTransform="matrix(10.8037 67.7123 67.7123 -10.8037 -31197.5645 10865.5)">
			<stop  offset="0" style="stop-color:#FFFFFF"/>
			<stop  offset="0.6" style="stop-color:#FFFFFF"/>
			<stop  offset="1" style="stop-color:#FFFFFF"/>
		</linearGradient>
		<polygon class="st14" points="89.14,39.93 105.68,143.57 45.91,153.11 29.37,49.46 		"/>
	</g>
	<g class="st0">
		<defs>
			<rect id="SVGID_38_" x="-84" y="-120.28" width="841.89" height="595.28"/>
		</defs>
		<clipPath id="SVGID_39_">
			<use xlink:href="#SVGID_38_"  style="overflow:visible;"/>
		</clipPath>
		<path class="st15" d="M123.54,82.42c-13.8,4.6-25.04-4.76-25.18-4.87c4.9,9.52,15.93,14.68,26.69,11.79
			c11.78-3.17,18.98-14.85,16.81-26.64C141.77,62.96,137.29,77.83,123.54,82.42"/>
		<path class="st16" d="M26.47,132.53c-1.3-11.8-0.62-23.88,1.87-35.59C30.78,85.21,35,73.86,40.61,63.25
			c5.68-10.57,12.76-20.4,21.14-28.96c8.33-8.59,18-15.88,28.52-21.37c-9.79,6.7-18.63,14.58-26.45,23.3
			c-7.78,8.76-14.53,18.41-20.01,28.73C32.78,85.58,26.72,108.8,26.47,132.53"/>
		<path class="st16" d="M28.08,43.4c1.79-6.21,4.95-12.01,8.89-17.16c3.98-5.12,8.78-9.67,14.33-12.98
			c-4.67,4.45-9.04,9.04-12.89,14.08C34.52,32.35,31.19,37.75,28.08,43.4"/>
		<g class="st17">
			<g>
				<defs>
					<rect id="SVGID_40_" x="132.6" y="160.95" width="467.8" height="93.29"/>
				</defs>
				<clipPath id="SVGID_41_">
					<use xlink:href="#SVGID_40_"  style="overflow:visible;"/>
				</clipPath>
				<path class="st18" d="M134.36,210.18c-0.8-32.72,18.49-41.36,18.69-41.44l-0.68-1.6c-0.21,0.09-20.58,9.12-19.75,43.08
					c0.83,33.99,19.94,40.68,20.75,40.95l0.55-1.65C153.74,249.46,135.16,242.87,134.36,210.18"/>
				<path class="st18" d="M237.03,170.62v58.19h1.68v-58.19c0-3.94,3.21-7.15,7.15-7.15h16.29v-1.68h-16.29
					C241,161.79,237.03,165.75,237.03,170.62"/>
				<path class="st18" d="M330.6,163.88c-1.87,1.88-2.88,4.38-2.86,7.03c0.22,28.14,0.19,45.61-0.07,47.93l1.67,0.19
					c0.38-3.27,0.21-31.56,0.08-48.14c-0.02-2.2,0.83-4.27,2.38-5.83c1.55-1.57,3.63-2.43,5.84-2.43h21.2v-1.68h-21.2
					C334.97,160.95,332.47,161.99,330.6,163.88"/>
				<rect x="424.75" y="162.62" class="st18" width="1.68" height="74.03"/>
				<rect x="496.97" y="163.52" class="st18" width="1.68" height="71.97"/>
				<path class="st18" d="M533.54,254.02l1.66,0.22c0.52-2.42,26.26-63.01,36.14-86.15l-1.55-0.66
					C563.78,181.53,533.77,251.94,533.54,254.02"/>
				<path class="st18" d="M599.79,211.68l-7.22-16.8l-1.62,0.69l7.22,16.8c0.76,1.76,0.58,3.77-0.47,5.36
					c-1.01,1.54-2.63,2.42-4.43,2.42h-13.15v1.76h13.15c2.37,0,4.58-1.2,5.9-3.21C600.55,216.61,600.79,213.99,599.79,211.68"/>
			</g>
		</g>
		<g class="st19">
			<g>
				<defs>
					<rect id="SVGID_42_" x="130.92" y="159.27" width="471.16" height="96.65"/>
				</defs>
				<clipPath id="SVGID_43_">
					<use xlink:href="#SVGID_42_"  style="overflow:visible;"/>
				</clipPath>
				<path class="st20" d="M134.36,210.18c-0.8-32.72,18.49-41.36,18.69-41.44l-0.68-1.6c-0.21,0.09-20.58,9.12-19.75,43.08
					c0.83,33.99,19.94,40.68,20.75,40.95l0.55-1.65C153.74,249.46,135.16,242.87,134.36,210.18z"/>
				<path class="st20" d="M237.03,170.62v58.19h1.68v-58.19c0-3.94,3.21-7.15,7.15-7.15h16.29v-1.68h-16.29
					C241,161.79,237.03,165.75,237.03,170.62z"/>
				<path class="st20" d="M330.6,163.88c-1.87,1.88-2.88,4.38-2.86,7.03c0.22,28.14,0.19,45.61-0.07,47.93l1.67,0.19
					c0.38-3.27,0.21-31.56,0.08-48.14c-0.02-2.2,0.83-4.27,2.38-5.83c1.55-1.57,3.63-2.43,5.84-2.43h21.2v-1.68h-21.2
					C334.97,160.95,332.47,161.99,330.6,163.88z"/>
				<rect x="424.75" y="162.62" class="st20" width="1.68" height="74.03"/>
				<rect x="496.97" y="163.52" class="st20" width="1.68" height="71.97"/>
				<path class="st20" d="M533.54,254.02l1.66,0.22c0.52-2.42,26.26-63.01,36.14-86.15l-1.55-0.66
					C563.78,181.53,533.77,251.94,533.54,254.02z"/>
				<path class="st20" d="M599.79,211.68l-7.22-16.8l-1.62,0.69l7.22,16.8c0.76,1.76,0.58,3.77-0.47,5.36
					c-1.01,1.54-2.63,2.42-4.43,2.42h-13.15v1.76h13.15c2.37,0,4.58-1.2,5.9-3.21C600.55,216.61,600.79,213.99,599.79,211.68z"/>
			</g>
		</g>
	</g>
</g>
</svg>
