<?xml version="1.0" encoding="UTF-8"?>
<svg xmlns="http://www.w3.org/2000/svg" xmlns:xlink="http://www.w3.org/1999/xlink" viewBox="0 0 100 100" width="100px" height="100px">
<g id="surface20973529">
<path style=" stroke:none;fill-rule:nonzero;fill:rgb(100%,100%,100%);fill-opacity:1;" d="M 14 4 L 14 96 L 86 96 L 86 4 Z M 18 8 L 82 8 L 82 92 L 18 92 Z M 34.8125 16 C 30.453125 16.078125 30.085938 19.429688 30.9375 22.6875 C 30.9375 22.6875 30.476562 23.164062 30.5 23.8125 C 30.546875 25.039062 31.375 25.4375 31.375 25.4375 C 31.53125 26.578125 32.515625 27.625 32.875 27.8125 C 32.875 28.539062 32.945312 29.078125 32.875 29.875 C 32.015625 32.195312 26.265625 31.523438 26 36 L 43.75 36 C 43.484375 31.523438 37.742188 32.195312 36.875 29.875 C 36.804688 29.078125 36.875 28.539062 36.875 27.8125 C 37.367188 27.578125 38.210938 26.59375 38.375 25.4375 C 38.375 25.4375 39.25 24.90625 39.25 24 C 39.25 23.367188 38.984375 22.859375 38.8125 22.6875 C 39.273438 21.304688 40.09375 17.125 37.0625 17.125 C 36.734375 16.554688 35.90625 16 34.8125 16 Z M 55.4375 20 C 54.335938 20.15625 53.5625 21.179688 53.71875 22.28125 C 53.875 23.382812 54.898438 24.15625 56 24 L 72 24 C 72.71875 24.007812 73.390625 23.632812 73.757812 23.007812 C 74.117188 22.382812 74.117188 21.617188 73.757812 20.992188 C 73.390625 20.367188 72.71875 19.992188 72 20 L 56 20 C 55.9375 20 55.875 20 55.8125 20 C 55.75 20 55.6875 20 55.625 20 C 55.5625 20 55.5 20 55.4375 20 Z M 55.4375 30 C 54.335938 30.15625 53.5625 31.179688 53.71875 32.28125 C 53.875 33.382812 54.898438 34.15625 56 34 L 72 34 C 72.71875 34.007812 73.390625 33.632812 73.757812 33.007812 C 74.117188 32.382812 74.117188 31.617188 73.757812 30.992188 C 73.390625 30.367188 72.71875 29.992188 72 30 L 56 30 C 55.9375 30 55.875 30 55.8125 30 C 55.75 30 55.6875 30 55.625 30 C 55.5625 30 55.5 30 55.4375 30 Z M 27.4375 50 C 26.335938 50.15625 25.5625 51.179688 25.71875 52.28125 C 25.875 53.382812 26.898438 54.15625 28 54 L 56 54 C 56.71875 54.007812 57.390625 53.632812 57.757812 53.007812 C 58.117188 52.382812 58.117188 51.617188 57.757812 50.992188 C 57.390625 50.367188 56.71875 49.992188 56 50 L 28 50 C 27.9375 50 27.875 50 27.8125 50 C 27.75 50 27.6875 50 27.625 50 C 27.5625 50 27.5 50 27.4375 50 Z M 65.4375 50 C 64.335938 50.15625 63.5625 51.179688 63.71875 52.28125 C 63.875 53.382812 64.898438 54.15625 66 54 L 72 54 C 72.71875 54.007812 73.390625 53.632812 73.757812 53.007812 C 74.117188 52.382812 74.117188 51.617188 73.757812 50.992188 C 73.390625 50.367188 72.71875 49.992188 72 50 L 66 50 C 65.9375 50 65.875 50 65.8125 50 C 65.75 50 65.6875 50 65.625 50 C 65.5625 50 65.5 50 65.4375 50 Z M 27.4375 62 C 26.335938 62.15625 25.5625 63.179688 25.71875 64.28125 C 25.875 65.382812 26.898438 66.15625 28 66 L 50 66 C 50.71875 66.007812 51.390625 65.632812 51.757812 65.007812 C 52.117188 64.382812 52.117188 63.617188 51.757812 62.992188 C 51.390625 62.367188 50.71875 61.992188 50 62 L 28 62 C 27.9375 62 27.875 62 27.8125 62 C 27.75 62 27.6875 62 27.625 62 C 27.5625 62 27.5 62 27.4375 62 Z M 65.4375 62 C 64.335938 62.15625 63.5625 63.179688 63.71875 64.28125 C 63.875 65.382812 64.898438 66.15625 66 66 L 72 66 C 72.71875 66.007812 73.390625 65.632812 73.757812 65.007812 C 74.117188 64.382812 74.117188 63.617188 73.757812 62.992188 C 73.390625 62.367188 72.71875 61.992188 72 62 L 66 62 C 65.9375 62 65.875 62 65.8125 62 C 65.75 62 65.6875 62 65.625 62 C 65.5625 62 65.5 62 65.4375 62 Z M 27.4375 74 C 26.335938 74.15625 25.5625 75.179688 25.71875 76.28125 C 25.875 77.382812 26.898438 78.15625 28 78 L 56 78 C 56.71875 78.007812 57.390625 77.632812 57.757812 77.007812 C 58.117188 76.382812 58.117188 75.617188 57.757812 74.992188 C 57.390625 74.367188 56.71875 73.992188 56 74 L 28 74 C 27.9375 74 27.875 74 27.8125 74 C 27.75 74 27.6875 74 27.625 74 C 27.5625 74 27.5 74 27.4375 74 Z M 65.4375 74 C 64.335938 74.15625 63.5625 75.179688 63.71875 76.28125 C 63.875 77.382812 64.898438 78.15625 66 78 L 72 78 C 72.71875 78.007812 73.390625 77.632812 73.757812 77.007812 C 74.117188 76.382812 74.117188 75.617188 73.757812 74.992188 C 73.390625 74.367188 72.71875 73.992188 72 74 L 66 74 C 65.9375 74 65.875 74 65.8125 74 C 65.75 74 65.6875 74 65.625 74 C 65.5625 74 65.5 74 65.4375 74 Z M 65.4375 74 "/>
</g>
</svg>
