<?xml version="1.0" encoding="UTF-8"?>
<svg xmlns="http://www.w3.org/2000/svg" xmlns:xlink="http://www.w3.org/1999/xlink" viewBox="0 0 24 24" width="24px" height="24px">
<g id="surface44969928">
<path style=" stroke:none;fill-rule:nonzero;fill:rgb(100%,100%,100%);fill-opacity:1;" d="M 10 2 L 9 3 L 5 3 C 4.398438 3 4 3.398438 4 4 C 4 4.601562 4.398438 5 5 5 L 19 5 C 19.601562 5 20 4.601562 20 4 C 20 3.398438 19.601562 3 19 3 L 15 3 L 14 2 Z M 5 7 L 5 20 C 5 21.101562 5.898438 22 7 22 L 17 22 C 18.101562 22 19 21.101562 19 20 L 19 7 Z M 9 9 C 9.601562 9 10 9.398438 10 10 L 10 19 C 10 19.601562 9.601562 20 9 20 C 8.398438 20 8 19.601562 8 19 L 8 10 C 8 9.398438 8.398438 9 9 9 Z M 15 9 C 15.601562 9 16 9.398438 16 10 L 16 19 C 16 19.601562 15.601562 20 15 20 C 14.398438 20 14 19.601562 14 19 L 14 10 C 14 9.398438 14.398438 9 15 9 Z M 15 9 "/>
</g>
</svg>
